# xmcd CD database file generated by Grip 3.3.1
# 
# Track frame offsets:
#       150
#       16982
#       46375
#       78320
#       111945
#       143420
#       175063
#       183941
#       213962
#       243948
#       270951
#       289572
#       315752
#       336832
# 
# Disc length: 4699 seconds
# 
# Revision: 1
# Processed by: cddbd v1.5.2PL0 Copyright (c) Steve Scherf et al.
# Submitted via: Grip 3.3.1
# 
DISCID=ad12590e
DTITLE=Roy Haynes - Roy Haynes - Eight Classic Albums [CD2)
DYEAR=1960
DGENRE=Jazz
TTITLE0=1. As long as there's music - Just us
TTITLE1=2. Con Alma - Just us
TTITLE2=3. Speak low - Just us
TTITLE3=4. Down home - Just us
TTITLE4=5. Sweet and lovely - Just us
TTITLE5=6. Cymbalism - Just us
TTITLE6=7. Well now - Just us
TTITLE7=1. Moon ray - Out of the afternoon
TTITLE8=2. Fly me to the moon (in other words) - Out of the afternoon
TTITLE9=3. Raoul - Out of the afternoon
TTITLE10=4. Snap Crackle
TTITLE11=5. If I should lose you - Out of the afternoon
TTITLE12=6. Long wharf - Out of the afternoon
TTITLE13=7. Some other spring - Out of the afternoon
EXTD=
EXTT0=
EXTT1=
EXTT2=
EXTT3=
EXTT4=
EXTT5=
EXTT6=
EXTT7=
EXTT8=
EXTT9=
EXTT10=
EXTT11=
EXTT12=
EXTT13=
PLAYORDER=
